<svg xmlns="http://www.w3.org/2000/svg" viewBox="0 0 1812.11 1618.4"><title>logo minimalist</title><g id="Layer_2" data-name="Layer 2"><g id="Layer_1-2" data-name="Layer 1"><path d="M1340.08,530.88Q1247.31,368.52,1085,275.75T716.43,183q-206.17,0-368.53,92.78T92.78,530.88Q0,693.23,0,902q0,206.16,92.78,368.52T347.9,1525.63q162.36,92.77,368.53,92.77t367.23-92.77q161.07-92.78,255.13-255.13T1432.85,902Q1432.85,693.22,1340.08,530.88ZM1179,1181.59Q1110.72,1304,989.6,1374.87t-273.17,70.87q-152.05,0-271.89-70.87T255.13,1181.59Q185.56,1059.18,185.55,902t69.58-280.9q69.58-123.71,189.41-194.57t271.89-70.87q152,0,273.17,70.87T1179,621.08Q1247.3,744.77,1247.3,902T1179,1181.59Z"/><g id="surface1"><path d="M1806.78,222.66a18.41,18.41,0,0,0-13-5.33,18.16,18.16,0,0,0-17.87,18.47v54.38H1721.4a18.13,18.13,0,1,0,0,36.25h54.46a36.54,36.54,0,0,0,36.25-36.25V235.8A18.3,18.3,0,0,0,1806.78,222.66ZM1592.29,299.2a18.2,18.2,0,0,0-16-9h-54.38V235.8a17.93,17.93,0,0,0-5.32-13.14,18.47,18.47,0,0,0-13.06-5.33,18.16,18.16,0,0,0-17.87,18.47v54.38a36.48,36.48,0,0,0,36.25,36.25h54.38a18.13,18.13,0,0,0,16-27.23ZM1775.86,0H1721.4a18.09,18.09,0,0,0-15.9,9,18.08,18.08,0,0,0,15.9,27.23h54.46V90.71a18.13,18.13,0,1,0,36.25,0V36.25A36.59,36.59,0,0,0,1775.86,0ZM1592.29,9a18.22,18.22,0,0,0-16-9h-54.38a36.54,36.54,0,0,0-36.25,36.25V90.71a18.13,18.13,0,1,0,36.25,0V36.25h54.38a18.31,18.31,0,0,0,16-8.93A18.34,18.34,0,0,0,1592.29,9Z"/></g></g></g></svg>