<svg xmlns="http://www.w3.org/2000/svg" viewBox="0 0 1091.28 576.8"><title>logotipo</title><g id="Layer_2" data-name="Layer 2"><g id="Layer_1-2" data-name="Layer 1"><path d="M151.65,201q9.15-15.6,9.15-35.7,0-22.8-12.3-37.8t-32.4-20.4a56.73,56.73,0,0,0,23-19.35A50,50,0,0,0,147.9,58.5q0-17.1-8.55-30.15A61.22,61.22,0,0,0,116.4,7.65,67.34,67.34,0,0,0,84.3,0H11.1A10.77,10.77,0,0,0,0,11.1V223.2a10,10,0,0,0,3.6,8.1,14,14,0,0,0,9.3,3H89.1q21,0,37.2-8.85A64.81,64.81,0,0,0,151.65,201ZM22.2,21.6H84.3q18,0,29.85,9.45T126,58.5q0,18.6-11.85,29.1T84.3,98.1H22.2Zm92.7,185.25q-11.1,5.85-25.8,5.85H22.2v-93H89.1q14.7,0,25.8,5.7a43.16,43.16,0,0,1,17.4,15.9q6.3,10.2,6.3,24,0,14.4-6.3,25A43.22,43.22,0,0,1,114.9,206.85Z"/><path d="M298.05,72q-7.35-3.6-20.55-3.6A60.37,60.37,0,0,0,246,76.8a65,65,0,0,0-19.8,18.35V81q0-5.1-2.85-8T215.1,70.2q-5.1,0-7.95,2.85t-2.85,8V223.5q0,5.1,2.85,7.95t7.95,2.85q5.4,0,8.25-2.85t2.85-7.95v-90q0-14.1,7.35-24.45a44.89,44.89,0,0,1,20.25-15.6q12.9-5.25,29.1-4,5.4.3,9.6.6a14,14,0,0,0,7.05-1q2.85-1.35,4.05-5.85Q305.4,75.6,298.05,72Z"/><path d="M367.5,81.3V365.2a14,14,0,0,1-.1,1.74V501.2a11,11,0,0,1-3,8.1,10.57,10.57,0,0,1-7.8,3,10.34,10.34,0,0,1-11.1-11.1V359.3a14,14,0,0,1,.1-1.74V81.3a10.34,10.34,0,0,1,11.1-11.1,10.57,10.57,0,0,1,7.8,3A11,11,0,0,1,367.5,81.3Z"/><path d="M367.8,10.8a16.77,16.77,0,0,0-22.2,0q-4.8,4.2-4.8,11.4a15.64,15.64,0,0,0,4.65,11.55A15,15,0,0,0,356.4,38.4a15.89,15.89,0,0,0,16.2-16.2C372.6,17.4,371,13.6,367.8,10.8Z"/><path d="M440.39,227.7a35.41,35.41,0,0,0,21,6.6h4.5a13.45,13.45,0,0,0,9.15-3,9.85,9.85,0,0,0,3.45-7.8,12.1,12.1,0,0,0-2.55-8.1,8.76,8.76,0,0,0-7.05-3h-7.5q-8.1,0-13.5-8.25T442.49,183V10.8a10.55,10.55,0,0,0-3-7.8,11,11,0,0,0-8.1-3,10.55,10.55,0,0,0-7.8,3,10.55,10.55,0,0,0-3,7.8V183q0,15,5.25,26.55A44,44,0,0,0,440.39,227.7Z"/><path d="M618.94,77.25q-17-8.85-38.25-8.85c-13,0-17.8,2.85-28.4,8.55a69.11,69.11,0,0,0-19.5,15.47V11.1a11,11,0,0,0-3-8.1,12.43,12.43,0,0,0-16.2,0,11,11,0,0,0-3,8.1V223.5a10.55,10.55,0,0,0,3,7.8,12.43,12.43,0,0,0,16.2,0,10.55,10.55,0,0,0,3-7.8V134.1a39,39,0,0,1,7.05-22.95,48.91,48.91,0,0,1,19-15.9c8-3.9,10-5.85,20-5.85a61.54,61.54,0,0,1,27.9,6.15,46.44,46.44,0,0,1,19.5,18.3q7.2,12.15,7.2,31.05v98.6a10.42,10.42,0,0,0,3.15,7.65,10.78,10.78,0,0,0,8,3.15,10.76,10.76,0,0,0,10.8-10.8V144.9q0-24.6-9.75-41.7A64.76,64.76,0,0,0,618.94,77.25Z"/><path d="M860.69,109.2A78.44,78.44,0,0,0,831,79.5q-18.9-10.8-42.9-10.8t-42.9,10.8a78.44,78.44,0,0,0-29.7,29.7q-10.8,18.9-10.8,43.2,0,24,10.8,42.9a78.44,78.44,0,0,0,29.7,29.7q18.9,10.8,42.9,10.8T830.84,225a79.86,79.86,0,0,0,29.7-29.7q11-18.9,11-42.9Q871.49,128.1,860.69,109.2ZM841.94,185a58.83,58.83,0,0,1-22.05,22.5,61.79,61.79,0,0,1-31.8,8.25,61,61,0,0,1-31.65-8.25A60.28,60.28,0,0,1,734.39,185q-8.1-14.25-8.1-32.55t8.1-32.7a60,60,0,0,1,22.05-22.65,61,61,0,0,1,31.65-8.25,61.79,61.79,0,0,1,31.8,8.25,58.54,58.54,0,0,1,22.05,22.65q7.95,14.4,7.95,32.7T841.94,185Z"/><path d="M262.4,310.85a107.5,107.5,0,0,0-37-24.3Q203.9,278,178.1,278h-54A10.77,10.77,0,0,0,113,289.1V501.2a10.77,10.77,0,0,0,11.1,11.1h54q25.8,0,47.25-8.55a107.5,107.5,0,0,0,37-24.3,110.19,110.19,0,0,0,24.15-37.2Q295.1,420.8,295.1,395t-8.55-47.1A110.54,110.54,0,0,0,262.4,310.85ZM261.05,445.1a89.82,89.82,0,0,1-33.6,34.5Q206,492.2,178.1,492.2H135.2V298.1h42.9q27.9,0,49.35,12.45a88.74,88.74,0,0,1,33.6,34.35Q273.2,366.8,273.2,395T261.05,445.1Z"/><path d="M544.24,357.35q-18.75-10.65-43.05-10.65-24,0-42.9,10.65a77.36,77.36,0,0,0-29.7,29.55q-10.8,18.9-10.8,43.5,0,24.3,10.35,43.2a75.1,75.1,0,0,0,28.8,29.55q18.45,10.65,42.15,10.65,21.3,0,37.65-9.6a68,68,0,0,0,25.65-26.7c.21-.38.4-.77.6-1.15v14q0,19.8-8.1,34.65a59.82,59.82,0,0,1-21.75,23.1,58.84,58.84,0,0,1-31.05,8.25q-18.3,0-32.1-6.75a65.06,65.06,0,0,1-22.5-17.55,11,11,0,0,0-7.35-4.35,10.43,10.43,0,0,0-8.25,2,8.62,8.62,0,0,0-4.05,6.45,9.51,9.51,0,0,0,2.85,7.65,82.72,82.72,0,0,0,29.4,24q18,9,42,9,23.7,0,42.3-11.25a81.22,81.22,0,0,0,29.4-30.75q10.8-19.5,10.8-43.8V430.4q0-24.6-10.8-43.5A77.66,77.66,0,0,0,544.24,357.35ZM555,463.25a58.07,58.07,0,0,1-21.9,22.35q-13.95,8.1-31.95,8.1t-31.95-8.1a58.07,58.07,0,0,1-21.9-22.35q-7.95-14.25-7.95-32.85t7.95-33a57.78,57.78,0,0,1,21.9-22.5q14-8.1,31.95-8.1t31.95,8.1A57.78,57.78,0,0,1,555,397.4q8,14.4,8,33T555,463.25Z"/><path d="M645.79,348.2a10.34,10.34,0,0,0-11.1,11.1V501.2a10.34,10.34,0,0,0,11.1,11.1,10.55,10.55,0,0,0,7.8-3,11,11,0,0,0,3-8.1V359.3a11,11,0,0,0-3-8.1A10.55,10.55,0,0,0,645.79,348.2Z"/><path d="M656.89,288.8a16.77,16.77,0,0,0-22.2,0q-4.8,4.2-4.8,11.4a15.68,15.68,0,0,0,4.65,11.55,15,15,0,0,0,11,4.65,15.89,15.89,0,0,0,16.2-16.2Q661.69,293,656.89,288.8Z"/><path d="M788.29,490.1h-7.8q-14.72,0-24-10.05t-9.3-25.65v-81h35.1a9.89,9.89,0,0,0,7.05-2.7,9.78,9.78,0,0,0,0-13.8,9.89,9.89,0,0,0-7.05-2.7h-35.1V307.1a10.77,10.77,0,0,0-11.1-11.1,10.63,10.63,0,0,0-8.1,3.15,11,11,0,0,0-3,8v47.1h-20.4a9.82,9.82,0,0,0-7.05,2.7,9.78,9.78,0,0,0,0,13.8,9.82,9.82,0,0,0,7.05,2.7H725v81q0,16.8,7.2,29.85A53.58,53.58,0,0,0,752,504.8a54.62,54.62,0,0,0,28.5,7.5h6.3a12.45,12.45,0,0,0,8.7-3,10.09,10.09,0,0,0,3.3-7.8,11.87,11.87,0,0,0-2.85-8.25A9.84,9.84,0,0,0,788.29,490.1Z"/><path d="M953.73,357.65Q935,346.7,911,346.7q-23.7,0-42.6,10.95a80.66,80.66,0,0,0-29.85,29.85q-10.95,18.9-10.95,42.9,0,23.7,10.65,42.6a79.43,79.43,0,0,0,29.1,29.85q18.45,10.95,41.85,10.95,21.9,0,39.15-9.9a73.59,73.59,0,0,0,23.85-21.7v19.3a10.28,10.28,0,0,0,3.15,7.8,11.07,11.07,0,0,0,7.95,3,11,11,0,0,0,8.1-3,10.55,10.55,0,0,0,3-7.8V430.4q0-24-11-42.9A81,81,0,0,0,953.73,357.65Zm-11.1,127.8a61.72,61.72,0,0,1-85.2-22.65,64,64,0,0,1-8.25-32.4q0-18.3,8.25-32.55a62.61,62.61,0,0,1,22.2-22.65,63.26,63.26,0,0,1,63,0,61.43,61.43,0,0,1,22,22.65q8.1,14.25,8.1,32.55a64.93,64.93,0,0,1-8.1,32.4A60,60,0,0,1,942.63,485.45Z"/><path d="M1088.73,493.4a8.76,8.76,0,0,0-7-3h-7.5q-8.1,0-13.5-8.25t-5.4-21.15V288.8a10.55,10.55,0,0,0-3-7.8,11,11,0,0,0-8.1-3,10.29,10.29,0,0,0-10.8,10.8V461q0,15,5.25,26.55a44,44,0,0,0,14.55,18.15,35.41,35.41,0,0,0,21,6.6h4.5a13.45,13.45,0,0,0,9.15-3,9.85,9.85,0,0,0,3.45-7.8A12.1,12.1,0,0,0,1088.73,493.4Z"/><g id="surface1"><path d="M881.86,47.4a4.25,4.25,0,0,0-4.22,4.22V58a2.11,2.11,0,1,0,4.22,0V51.62h6.33a2.11,2.11,0,1,0,0-4.22Zm23.22,0a2.1,2.1,0,0,0-1.85,1.05,2.11,2.11,0,0,0,1.85,3.17h6.34V58a2.11,2.11,0,1,0,4.22,0V51.62a4.25,4.25,0,0,0-4.22-4.22ZM879.72,72.7a2.11,2.11,0,0,0-2.08,2.15v6.33a4.25,4.25,0,0,0,4.22,4.22h6.33a2.11,2.11,0,1,0,0-4.22h-6.33V74.85a2.09,2.09,0,0,0-.62-1.53A2.15,2.15,0,0,0,879.72,72.7Zm33.78,0a2.11,2.11,0,0,0-2.08,2.15v6.33h-6.34a2.11,2.11,0,1,0,0,4.22h6.34a4.25,4.25,0,0,0,4.22-4.22V74.85a2.12,2.12,0,0,0-2.14-2.15Z"/></g></g></g></svg>